# xmcd CD database file
#
# Track frame offsets:
#	150
#	11400
#	23100
#	33075
#	41250
#	52575
#	67050
#	75975
#	89775
#	101250
#	112275
#	122625
#	134175
#	144150
#	157425
#	168825
#	176400
#	187650
#	196950
#	207600
#	216375
#	225450
#	240075
#	252975
#	262800
#
# Disc length: 3713 seconds
#
# Revision: 1
# Processed by: cddbd v1.5.1PL2 Copyright (c) Steve Scherf et al.
# Submitted via: freeDBTagger 0.8.2.1
#
DISCID=4d0e7f19
DTITLE=Tom Jones - The Classics
DYEAR=2000
DGENRE=blues
TTITLE0=Green Green Grass Of Home
TTITLE1=Delilah
TTITLE2=What's New Pussycat
TTITLE3=She's a Lady
TTITLE4=The Most Beautiful Girl In The World
TTITLE5=You've Lost That Lovin' Feelin'
TTITLE6=Knock On Wood
TTITLE7=Help Me Make It Through The Night
TTITLE8=I (Who Have Nothing)
TTITLE9=Got To Get You Into My Life
TTITLE10=Proud Mary
TTITLE11=You Don't Have To Say You Love Me
TTITLE12=Spanish Harlem
TTITLE13=Honky Tonk Women
TTITLE14=Do Ya' Think I'm Sexy?
TTITLE15=(I Can't Get No) Satisfaction
TTITLE16=The Long And Winding Road
TTITLE17=I Can See Clearly Now
TTITLE18=Fever
TTITLE19=In The Midnight Hour
TTITLE20=Daughter Of Darkness
TTITLE21=I Can't Stop Loving You
TTITLE22=Take Me To The River
TTITLE23=Try A Little Tenderness
TTITLE24=My Way
EXTD=
EXTT0=
EXTT1=
EXTT2=
EXTT3=
EXTT4=
EXTT5=
EXTT6=
EXTT7=
EXTT8=
EXTT9=
EXTT10=
EXTT11=
EXTT12=
EXTT13=
EXTT14=
EXTT15=
EXTT16=
EXTT17=
EXTT18=
EXTT19=
EXTT20=
EXTT21=
EXTT22=
EXTT23=
EXTT24=
PLAYORDER=
